<svg width="20" height="15" viewBox="0 0 20 15" class="icon icon-arrow" fill="none" xmlns="http://www.w3.org/2000/svg">
<path d="M2.04054 5.51909C1.65562 5.36842 1.23566 5.38197 0.868523 5.57082C0.501646 5.75885 0.217654 6.10675 0.0835429 6.52391C-0.0505682 6.94108 -0.0225123 7.38929 0.16606 7.75589C0.35437 8.12331 0.68776 8.37905 1.08837 8.48091C1.36207 8.55188 1.63307 8.61804 1.9013 8.67959C6.77324 9.79775 11.9739 9.75656 16.5982 7.88765C16.8585 7.77725 17.0964 7.67108 17.3734 7.52543C17.5005 7.45408 17.5961 7.33097 17.6413 7.18787C17.6864 7.0445 17.6775 6.89289 17.6142 6.76168C17.551 6.63047 17.4379 6.52907 17.2976 6.47509C17.1575 6.42138 17.0016 6.4195 16.8666 6.47457C16.671 6.54711 16.4147 6.62901 16.1761 6.69631C11.7316 7.88563 6.97841 7.32636 2.74714 5.78682C2.51361 5.70166 2.27806 5.61247 2.04054 5.51909Z" fill="currentColor"/>
<path d="M10.78 2.40925C10.4657 2.96014 10.6532 3.66133 11.2004 3.98189L15.3813 6.43088C16.116 6.86125 16.3681 7.80233 15.947 8.5424L13.5508 12.7537C13.2372 13.3049 13.4254 14.0059 13.973 14.3259C14.5292 14.6508 15.2436 14.4594 15.5627 13.8999L19.1001 7.69879C19.5226 6.95804 19.27 6.01517 18.5337 5.58494L12.3697 1.98329C11.8135 1.65833 11.0991 1.84977 10.78 2.40925Z" fill="currentColor"/>
</svg>
