<svg width="18" height="18" viewBox="0 0 18 18" fill="none" class="icon icon-star-new" xmlns="http://www.w3.org/2000/svg">
<path d="M9 12.9563L5.8875 14.8313C5.75 14.9188 5.60625 14.9563 5.45625 14.9438C5.30625 14.9313 5.175 14.8813 5.0625 14.7938C4.95 14.7063 4.8625 14.597 4.8 14.466C4.7375 14.335 4.725 14.188 4.7625 14.025L5.5875 10.4813L2.83125 8.10002C2.70625 7.98752 2.62825 7.85927 2.59725 7.71527C2.56625 7.57127 2.5755 7.43077 2.625 7.29377C2.6745 7.15677 2.7495 7.04427 2.85 6.95627C2.9505 6.86827 3.088 6.81202 3.2625 6.78752L6.9 6.46877L8.30625 3.13127C8.36875 2.98127 8.46575 2.86877 8.59725 2.79377C8.72875 2.71877 8.863 2.68127 9 2.68127C9.137 2.68127 9.27125 2.71877 9.40275 2.79377C9.53425 2.86877 9.63125 2.98127 9.69375 3.13127L11.1 6.46877L14.7375 6.78752C14.9125 6.81252 15.05 6.86877 15.15 6.95627C15.25 7.04377 15.325 7.15627 15.375 7.29377C15.425 7.43127 15.4345 7.57202 15.4035 7.71602C15.3725 7.86002 15.2943 7.98802 15.1688 8.10002L12.4125 10.4813L13.2375 14.025C13.275 14.1875 13.2625 14.3345 13.2 14.466C13.1375 14.5975 13.05 14.7068 12.9375 14.7938C12.825 14.8808 12.6938 14.9308 12.5438 14.9438C12.3938 14.9568 12.25 14.9193 12.1125 14.8313L9 12.9563Z" fill="currentColor"/>
</svg>