<svg width="24" height="24" viewBox="0 0 24 24" fill="none" class="icon icon-factory-bold" xmlns="http://www.w3.org/2000/svg">
<path d="M4 22C3.45 22 2.97933 21.8043 2.588 21.413C2.19667 21.0217 2.00067 20.5507 2 20V11.3C2 10.9 2.10833 10.5333 2.325 10.2C2.54167 9.86667 2.84167 9.61667 3.225 9.45L7.6 7.6C7.93333 7.46667 8.25 7.49167 8.55 7.675C8.85 7.85833 9 8.13333 9 8.5V9L12.625 7.55C12.9583 7.41667 13.2707 7.45 13.562 7.65C13.8533 7.85 13.9993 8.125 14 8.475V10H22V20C22 20.55 21.8043 21.021 21.413 21.413C21.0217 21.805 20.5507 22.0007 20 22H4ZM11 18H13V14H11V18ZM7 18H9V14H7V18ZM15 18H17V14H15V18ZM21.8 8.5H17.175L17.9 2.875C17.9333 2.625 18.046 2.41667 18.238 2.25C18.43 2.08333 18.6507 2 18.9 2H20.125C20.375 2 20.5917 2.08333 20.775 2.25C20.9583 2.41667 21.0667 2.625 21.1 2.875L21.8 8.5Z" fill="currentColor"/>
</svg>
