<svg width="100" height="100" viewBox="0 0 100 100" fill="none" class="icon icon-flag-usa" xmlns="http://www.w3.org/2000/svg">
  <!-- Red and white stripes -->
  <rect x="6.94" y="23.61" width="86.11" height="5.56" fill="#D22F27"/>
  <rect x="6.94" y="35.28" width="86.11" height="5.56" fill="#FFFFFF"/>
  <rect x="6.94" y="47.22" width="86.11" height="5.56" fill="#D22F27"/>
  <rect x="6.94" y="58.89" width="86.11" height="5.56" fill="#FFFFFF"/>
  <rect x="6.94" y="69.44" width="86.11" height="5.56" fill="#D22F27"/>
  
  <!-- Blue canton -->
  <rect x="6.94" y="23.61" width="41.65" height="23.61" fill="#1E50A0"/>
  
  <!-- Stars (5-pointed stars simplified as circles for cleaner look) -->
  <circle cx="16.32" cy="30.68" r="1.8" fill="#FFFFFF"/>
  <circle cx="27.43" cy="30.68" r="1.8" fill="#FFFFFF"/>
  <circle cx="38.54" cy="30.68" r="1.8" fill="#FFFFFF"/>
  <circle cx="44.1" cy="30.68" r="1.8" fill="#FFFFFF"/>
  
  <circle cx="21.88" cy="36.23" r="1.8" fill="#FFFFFF"/>
  <circle cx="32.99" cy="36.23" r="1.8" fill="#FFFFFF"/>
  <circle cx="38.54" cy="36.23" r="1.8" fill="#FFFFFF"/>
  
  <circle cx="16.32" cy="41.79" r="1.8" fill="#FFFFFF"/>
  <circle cx="27.43" cy="41.79" r="1.8" fill="#FFFFFF"/>
  <circle cx="44.1" cy="41.79" r="1.8" fill="#FFFFFF"/>
  
  <circle cx="21.88" cy="47.35" r="1.8" fill="#FFFFFF"/>
  <circle cx="32.99" cy="47.35" r="1.8" fill="#FFFFFF"/>
  <circle cx="38.54" cy="47.35" r="1.8" fill="#FFFFFF"/>
  
  <!-- Border -->
  <rect x="6.94" y="23.61" width="86.11" height="52.78" fill="none" stroke="#000000" stroke-width="2.78"/>
</svg>
