<svg width="20" height="20" viewBox="0 0 20 20" class="icon icon-filter" fill="none" xmlns="http://www.w3.org/2000/svg">
<path fill-rule="evenodd" clip-rule="evenodd" d="M2.5 5.83333C2.5 5.61232 2.5878 5.40036 2.74408 5.24408C2.90036 5.0878 3.11232 5 3.33333 5H16.6667C16.8877 5 17.0996 5.0878 17.2559 5.24408C17.4122 5.40036 17.5 5.61232 17.5 5.83333C17.5 6.05435 17.4122 6.26631 17.2559 6.42259C17.0996 6.57887 16.8877 6.66667 16.6667 6.66667H3.33333C3.11232 6.66667 2.90036 6.57887 2.74408 6.42259C2.5878 6.26631 2.5 6.05435 2.5 5.83333ZM4.16667 9.58333C4.16667 9.36232 4.25446 9.15036 4.41074 8.99408C4.56702 8.8378 4.77899 8.75 5 8.75H15C15.221 8.75 15.433 8.8378 15.5893 8.99408C15.7455 9.15036 15.8333 9.36232 15.8333 9.58333C15.8333 9.80435 15.7455 10.0163 15.5893 10.1726C15.433 10.3289 15.221 10.4167 15 10.4167H5C4.77899 10.4167 4.56702 10.3289 4.41074 10.1726C4.25446 10.0163 4.16667 9.80435 4.16667 9.58333ZM6.66667 13.3333C6.66667 13.1123 6.75446 12.9004 6.91074 12.7441C7.06702 12.5878 7.27899 12.5 7.5 12.5H12.5C12.721 12.5 12.933 12.5878 13.0893 12.7441C13.2455 12.9004 13.3333 13.1123 13.3333 13.3333C13.3333 13.5543 13.2455 13.7663 13.0893 13.9226C12.933 14.0789 12.721 14.1667 12.5 14.1667H7.5C7.27899 14.1667 7.06702 14.0789 6.91074 13.9226C6.75446 13.7663 6.66667 13.5543 6.66667 13.3333Z" fill="currentColor"/>
</svg>

