<svg width="24" height="24" viewBox="0 0 24 24" fill="none" class="icon icon-truck-bold" xmlns="http://www.w3.org/2000/svg">
<path d="M3.06668 6.33328C3.06668 5.15662 4.02335 4.19995 5.20002 4.19995H14.8C15.9767 4.19995 16.9333 5.15662 16.9333 6.33328V7.39995H18.6234C19.19 7.39995 19.7334 7.62328 20.1334 8.02328L21.6434 9.53328C22.0434 9.93328 22.2667 10.4766 22.2667 11.0433V15.9333C22.2667 17.11 21.31 18.0666 20.1334 18.0666H20.0234C19.6767 19.2966 18.5434 20.2 17.2 20.2C15.8567 20.2 14.7267 19.2966 14.3767 18.0666H10.9567C10.61 19.2966 9.47668 20.2 8.13335 20.2C6.79002 20.2 5.66002 19.2966 5.31002 18.0666H5.20002C4.02335 18.0666 3.06668 17.11 3.06668 15.9333V14.3333H1.73335C1.29002 14.3333 0.93335 13.9766 0.93335 13.5333C0.93335 13.09 1.29002 12.7333 1.73335 12.7333H5.46668C5.91002 12.7333 6.26668 12.3766 6.26668 11.9333C6.26668 11.49 5.91002 11.1333 5.46668 11.1333H1.73335C1.29002 11.1333 0.93335 10.7766 0.93335 10.3333C0.93335 9.88995 1.29002 9.53328 1.73335 9.53328H7.60002C8.04335 9.53328 8.40002 9.17662 8.40002 8.73328C8.40002 8.28995 8.04335 7.93328 7.60002 7.93328H1.73335C1.29002 7.93328 0.93335 7.57662 0.93335 7.13328C0.93335 6.68995 1.29002 6.33328 1.73335 6.33328H3.06668ZM20.1334 12.7333V11.0433L18.6234 9.53328H16.9333V12.7333H20.1334ZM9.46668 17.2666C9.46668 16.913 9.32621 16.5739 9.07616 16.3238C8.82611 16.0738 8.48697 15.9333 8.13335 15.9333C7.77973 15.9333 7.44059 16.0738 7.19054 16.3238C6.94049 16.5739 6.80002 16.913 6.80002 17.2666C6.80002 17.6202 6.94049 17.9594 7.19054 18.2094C7.44059 18.4595 7.77973 18.6 8.13335 18.6C8.48697 18.6 8.82611 18.4595 9.07616 18.2094C9.32621 17.9594 9.46668 17.6202 9.46668 17.2666ZM17.2 18.6C17.5536 18.6 17.8928 18.4595 18.1428 18.2094C18.3929 17.9594 18.5333 17.6202 18.5333 17.2666C18.5333 16.913 18.3929 16.5739 18.1428 16.3238C17.8928 16.0738 17.5536 15.9333 17.2 15.9333C16.8464 15.9333 16.5073 16.0738 16.2572 16.3238C16.0072 16.5739 15.8667 16.913 15.8667 17.2666C15.8667 17.6202 16.0072 17.9594 16.2572 18.2094C16.5073 18.4595 16.8464 18.6 17.2 18.6Z" fill="currentColor"/>
</svg>
