<svg class="icon icon-facebook" viewBox="0 0 16 16"><path fill="currentColor" d="M9.34375 0.0218763C9.1875 0.0375013 8.82812 0.118751 8.60625 0.187501C7.59687 0.496876 6.83438 1.2625 6.50312 2.29688C6.325 2.85625 6.30625 3.05 6.29063 4.50625L6.275 5.84375H5.05938H3.84375V7.28125V8.71875H5.0625H6.28125V12.3594V16H7.76562H9.25V12.3594V8.71875H10.4781H11.7031L11.8844 7.30313C11.9844 6.52813 12.0656 5.88125 12.0625 5.86563C12.0625 5.85313 11.4281 5.84375 10.6531 5.84375H9.24375L9.25625 4.725C9.26875 3.6625 9.27187 3.6 9.34063 3.39063C9.39687 3.21563 9.44688 3.14063 9.575 3.0125C9.86875 2.71875 10.1937 2.65625 11.4781 2.65625H12.1562V1.37813V0.100001L11.9781 0.0812511C11.3438 0.0125008 9.76875 -0.0249996 9.34375 0.0218763Z"/></svg>
