<svg class="icon icon-twitter" viewBox="0 0 16 16"><path fill="currentColor" fill-rule="evenodd" d="M0.176114 0.0374994C0.188614 0.0562496 1.56049 2.05625 3.22611 4.47812C4.88862 6.9 6.25112 8.8875 6.25112 8.89375C6.25112 8.9 0.629239 15.4469 0.194864 15.9437C0.151114 15.9969 0.185489 16 0.863614 16H1.58236L4.23862 12.9094L6.89799 9.82188L9.01987 12.9094L11.1417 16H13.4949C15.3699 16 15.8449 15.9906 15.823 15.9594C15.8105 15.9406 14.398 13.8781 12.6824 11.3812C10.9636 8.88438 9.55424 6.825 9.54487 6.80312C9.53237 6.76562 10.2917 5.875 14.3042 1.20937L15.348 0H14.6292H13.9105L11.4011 2.91875C10.0199 4.52187 8.88237 5.83125 8.87299 5.825C8.86362 5.82187 7.95737 4.50625 6.85737 2.90938L4.86049 0H2.50736C0.691739 0 0.160489 0.00937462 0.176114 0.0374994ZM8.92299 7.86562C11.5355 11.6062 13.7261 14.7406 13.7917 14.8344L13.9105 15H12.8699L11.8292 14.9969L7.07924 8.2C4.46674 4.45937 2.27611 1.325 2.21049 1.23125L2.08861 1.0625H3.13236L4.17299 1.06563L8.92299 7.86562Z" clip-rule="evenodd"/></svg>
