<svg width="20" height="20" viewBox="0 0 20 20" class="icon icon-phone" fill="none" xmlns="http://www.w3.org/2000/svg">
<path d="M16.0289 12.7166L13.9123 12.475C13.6634 12.4457 13.4111 12.4733 13.1744 12.5556C12.9377 12.6378 12.7227 12.7727 12.5456 12.95L11.0123 14.4833C8.64677 13.2799 6.72399 11.3571 5.52061 8.99164L7.06227 7.44997C7.42061 7.09164 7.59561 6.59164 7.53727 6.0833L7.29561 3.9833C7.24854 3.57671 7.05349 3.20166 6.74766 2.92963C6.44182 2.65761 6.04658 2.50763 5.63727 2.5083H4.19561C3.25394 2.5083 2.47061 3.29164 2.52894 4.2333C2.97061 11.35 8.66227 17.0333 15.7706 17.475C16.7123 17.5333 17.4956 16.75 17.4956 15.8083V14.3666C17.5039 13.525 16.8706 12.8166 16.0289 12.7166Z" fill="currentColor"/>
</svg>

