<svg class="icon icon-linkedin" viewBox="0 0 16 16" fill="none" xmlns="http://www.w3.org/2000/svg">
<path d="M0.519553 15.9992H2.59953C2.88648 15.9992 3.11908 15.7445 3.11908 15.4304V5.47747C3.11908 5.16329 2.88648 4.90869 2.59953 4.90869H0.519553C0.232569 4.90869 0 5.16329 0 5.47747V15.4304C0 15.7445 0.232569 15.9992 0.519553 15.9992Z" fill="currentColor"/>
<path d="M0.519553 3.15958H2.59953C2.88648 3.15958 3.11908 2.90495 3.11908 2.5908V0.568777C3.11908 0.254635 2.88648 0 2.59953 0H0.519553C0.232569 0 0 0.254635 0 0.568777V2.5908C0 2.90495 0.232569 3.15958 0.519553 3.15958Z" fill="currentColor"/>
<path d="M15.2165 6.06376C14.9243 5.64258 14.4933 5.29622 13.9234 5.02472C13.3536 4.75342 12.7245 4.61768 12.0363 4.61768C10.6392 4.61768 9.45541 5.20138 8.48487 6.369C8.29176 6.60133 8.15135 6.55054 8.15135 6.23636V5.47813C8.15135 5.16396 7.91872 4.90935 7.63177 4.90935H5.77376C5.48678 4.90935 5.25421 5.16396 5.25421 5.47813V15.431C5.25421 15.7452 5.48681 15.9998 5.77376 15.9998H7.85374C8.14072 15.9998 8.37329 15.7452 8.37329 15.431V11.9697C8.37329 10.5277 8.45283 9.53927 8.61191 9.00461C8.77093 8.46996 9.06518 8.04064 9.49437 7.71658C9.92361 7.39252 10.4083 7.23041 10.9485 7.23041C11.3703 7.23041 11.7311 7.34385 12.0309 7.57076C12.3306 7.79763 12.5471 8.11545 12.6803 8.52465C12.8135 8.93379 12.8801 9.83503 12.8801 11.2285V15.431C12.8801 15.7452 13.1127 15.9998 13.3996 15.9998H15.4796C15.7665 15.9998 15.9991 15.7452 15.9991 15.431V9.7945C15.9991 8.79811 15.9417 8.0325 15.8272 7.49784C15.7126 6.96319 15.509 6.48517 15.2165 6.06376Z" fill="currentColor"/>
</svg>
