<svg width="24" height="24" viewBox="0 0 24 24" fill="none" class="icon icon-price-tag-bold" xmlns="http://www.w3.org/2000/svg">
<path fill-rule="evenodd" clip-rule="evenodd" d="M16.1371 4.728L17.9671 6.558C20.6561 9.248 22.0001 10.592 22.0001 12.262C22.0001 13.933 20.6561 15.277 17.9671 17.966C15.2771 20.656 13.9331 22 12.2621 22C10.5921 22 9.24711 20.656 6.55811 17.967L4.72811 16.137C3.18311 14.591 2.41011 13.819 2.12311 12.816C1.83511 11.813 2.08111 10.748 2.57311 8.619L2.85611 7.391C3.26911 5.599 3.47611 4.703 4.08911 4.089C4.70211 3.475 5.59911 3.269 7.39111 2.856L8.61911 2.572C10.7491 2.081 11.8131 1.835 12.8161 2.122C13.8191 2.41 14.5921 3.183 16.1371 4.728ZM11.1461 14.328C10.4731 13.656 10.4781 12.69 10.8811 11.925C10.7813 11.7809 10.7352 11.6064 10.7507 11.4318C10.7662 11.2572 10.8423 11.0936 10.9659 10.9693C11.0895 10.845 11.2527 10.7679 11.4272 10.7514C11.6017 10.7349 11.7764 10.7801 11.9211 10.879C12.2611 10.699 12.6341 10.603 13.0061 10.607C13.205 10.6089 13.3951 10.6897 13.5344 10.8316C13.6737 10.9736 13.751 11.1651 13.7491 11.364C13.7473 11.5629 13.6665 11.7529 13.5245 11.8923C13.3825 12.0316 13.191 12.1089 12.9921 12.107C12.7606 12.1156 12.5417 12.2151 12.3831 12.384C11.9961 12.771 12.0971 13.159 12.2061 13.268C12.3161 13.377 12.7031 13.478 13.0901 13.091C13.8741 12.307 15.2281 12.047 16.0951 12.914C16.7681 13.587 16.7631 14.553 16.3601 15.318C16.4592 15.4621 16.5049 15.6364 16.4891 15.8106C16.4733 15.9849 16.3972 16.1481 16.2738 16.2721C16.1504 16.3961 15.9875 16.473 15.8133 16.4896C15.6392 16.5062 15.4647 16.4614 15.3201 16.363C14.8714 16.6092 14.3508 16.6913 13.8481 16.595C13.6532 16.555 13.4821 16.4391 13.3726 16.273C13.2631 16.1068 13.2241 15.9039 13.2641 15.709C13.3042 15.5141 13.42 15.343 13.5862 15.2335C13.7523 15.124 13.9552 15.085 14.1501 15.125C14.3271 15.162 14.6131 15.104 14.8581 14.859C15.2451 14.471 15.1441 14.084 15.0351 13.975C14.9251 13.866 14.5381 13.765 14.1511 14.152C13.3671 14.936 12.0131 15.196 11.1461 14.328ZM10.0201 10.293C10.2058 10.1072 10.3531 9.88674 10.4536 9.64406C10.554 9.40139 10.6057 9.1413 10.6057 8.87865C10.6056 8.616 10.5538 8.35593 10.4533 8.11329C10.3527 7.87065 10.2054 7.65019 10.0196 7.4645C9.83386 7.27881 9.61335 7.13153 9.37067 7.03106C9.128 6.93059 8.86791 6.8789 8.60526 6.87895C8.34261 6.879 8.08254 6.93078 7.8399 7.03133C7.59726 7.13189 7.3768 7.27925 7.19111 7.465C6.81609 7.84015 6.60546 8.34891 6.60556 8.87935C6.60565 9.4098 6.81646 9.91848 7.19161 10.2935C7.56676 10.6685 8.07552 10.8791 8.60596 10.8791C9.13641 10.879 9.64509 10.6681 10.0201 10.293Z" fill="currentColor"/>
</svg>
