<svg width="46" height="46" viewBox="0 0 46 46" fill="none" xmlns="http://www.w3.org/2000/svg" class="icon icon-phone-call">
<rect x="0.5" y="0.5" width="45" height="45" rx="22.5" stroke="#CCCCCC"/>
<path d="M20.9503 17C19.9736 17.1906 19.076 17.6683 18.3723 18.3719C17.6686 19.0756 17.1909 19.9733 17.0003 20.95M20.9503 13C18.9211 13.2254 17.0287 14.1342 15.5841 15.577C14.1394 17.0198 13.2283 18.911 13.0003 20.94M24.7734 24.8631C25.9749 23.6615 26.9237 22.3028 27.6197 20.8532C27.6796 20.7285 27.7095 20.6662 27.7325 20.5873C27.8142 20.3069 27.7555 19.9627 27.5855 19.7253C27.5377 19.6584 27.4805 19.6013 27.3662 19.487C27.0166 19.1374 26.8418 18.9626 26.7275 18.7868C26.2965 18.1239 26.2965 17.2693 26.7275 16.6064C26.8418 16.4307 27.0166 16.2559 27.3662 15.9062L27.5611 15.7114C28.0925 15.1799 28.3583 14.9142 28.6436 14.7699C29.2112 14.4828 29.8815 14.4828 30.449 14.7699C30.7344 14.9142 31.0001 15.1799 31.5316 15.7114L31.6892 15.869C32.2188 16.3986 32.4836 16.6634 32.6859 17.0235C32.9103 17.423 33.0717 18.0435 33.0703 18.5017C33.0691 18.9146 32.989 19.1969 32.8288 19.7613C31.9678 22.7947 30.3433 25.6571 27.9553 28.045C25.5674 30.433 22.705 32.0575 19.6716 32.9185C19.1072 33.0787 18.8249 33.1588 18.412 33.16C17.9538 33.1614 17.3333 33 16.9338 32.7756C16.5737 32.5733 16.3089 32.3085 15.7793 31.7789L15.6217 31.6213C15.0902 31.0898 14.8245 30.8241 14.6802 30.5387C14.3931 29.9712 14.3931 29.3009 14.6802 28.7333C14.8245 28.448 15.0902 28.1822 15.6217 27.6508L15.8165 27.4559C16.1661 27.1063 16.3409 26.9315 16.5167 26.8172C17.1796 26.3862 18.0342 26.3862 18.6971 26.8172C18.8729 26.9315 19.0477 27.1063 19.3973 27.4559C19.5116 27.5702 19.5687 27.6274 19.6356 27.6752C19.873 27.8453 20.2172 27.904 20.4976 27.8222C20.5765 27.7992 20.6388 27.7693 20.7635 27.7094C22.2131 27.0134 23.5718 26.0646 24.7734 24.8631Z" stroke="#43AA49" stroke-width="2" stroke-linecap="round" stroke-linejoin="round"/>
</svg>